# xmcd
#
# Track frame offsets: 
#        150
#        19117
#        39727
#        53715
#        76372
#        93110
#        112167
#        134237
#        151730
#        171617
#        196685
#
# Disc length: 2869 seconds
#
# Revision: 2
# Processed by: cddbd v1.5.2PL0 Copyright (c) Steve Scherf et al.
# Submitted via: ExactAudioCopy v1.1
#
DISCID=900b330b
DTITLE=Freda Payne - Come See About Me
DYEAR=2001
DGENRE=Soul
TTITLE0=Let´s Make Beautiful Music
TTITLE1=(It Looks Like) I´ll Never Gonna Fall In Love Again
TTITLE2=First Impression
TTITLE3=I Live For New York City
TTITLE4=At This Moment
TTITLE5=You Turned The Tables On Me
TTITLE6=I Couldn´t Live Without Your Love
TTITLE7=Come See About Me
TTITLE8=You Complete Me
TTITLE9=Nice To Be With You
TTITLE10=Just Like That 
EXTD=
EXTT0=
EXTT1=
EXTT2=
EXTT3=
EXTT4=
EXTT5=
EXTT6=
EXTT7=
EXTT8=
EXTT9=
EXTT10=Duet With Ali Ollie Woodson
PLAYORDER=
